<?xml version="1.0" standalone="no"?>
<!DOCTYPE svg PUBLIC "-//W3C//DTD SVG 20010904//EN"
 "http://www.w3.org/TR/2001/REC-SVG-20010904/DTD/svg10.dtd">
<svg version="1.0" xmlns="http://www.w3.org/2000/svg"
 width="512.000000pt" height="512.000000pt" viewBox="0 0 512.000000 512.000000"
 preserveAspectRatio="xMidYMid meet">
<metadata>
Created by potrace 1.11, written by Peter Selinger 2001-2013
</metadata>
<g transform="translate(0.000000,512.000000) scale(0.100000,-0.100000)"
fill="#000000" stroke="none">
<path d="M1515 3880 c-48 -17 -284 -147 -392 -216 -28 -18 -54 -30 -57 -27 -3
4 -6 2 -6 -3 0 -6 -16 -16 -35 -24 -19 -8 -35 -17 -35 -20 0 -4 -12 -12 -27
-19 -16 -7 -80 -44 -144 -82 -64 -38 -121 -69 -127 -69 -6 0 -12 -3 -14 -7 -1
-5 -21 -17 -43 -28 -35 -18 -125 -99 -164 -149 -25 -33 -49 -129 -47 -194 0
-34 -3 -62 -7 -62 -4 0 -3 -9 3 -19 6 -12 6 -22 1 -25 -5 -3 -5 -21 -1 -41 5
-21 4 -35 -1 -35 -6 0 -5 -8 1 -19 7 -14 7 -22 0 -26 -8 -5 -7 -11 1 -21 9
-11 9 -14 0 -14 -8 0 -9 -5 -1 -19 5 -11 7 -22 2 -24 -4 -3 -5 -39 -2 -81 3
-42 1 -76 -3 -76 -4 0 -3 -9 3 -19 5 -11 7 -22 2 -24 -4 -3 -5 -39 -2 -81 3
-42 1 -76 -3 -76 -4 0 -3 -9 3 -19 7 -14 7 -22 0 -26 -8 -5 -7 -11 1 -21 9
-11 9 -14 0 -14 -8 0 -9 -5 -1 -19 6 -12 6 -22 1 -25 -5 -3 -5 -21 -1 -41 5
-21 4 -35 -1 -35 -6 0 -5 -8 1 -19 6 -13 7 -22 0 -26 -5 -3 -7 -11 -5 -18 3
-7 7 -34 9 -62 8 -89 28 -142 79 -208 25 -33 135 -117 152 -117 3 0 57 -31
121 -70 63 -38 117 -70 120 -70 2 0 81 -45 174 -100 94 -55 172 -100 175 -100
2 0 46 -25 97 -56 97 -60 157 -89 172 -86 4 2 13 -2 20 -7 10 -9 116 -17 141
-11 6 1 13 2 17 1 17 -2 127 45 175 75 28 18 80 48 115 66 35 17 69 38 76 45
7 7 17 13 21 13 5 0 83 43 174 95 91 52 170 95 176 95 6 0 11 3 11 8 0 4 10
12 23 18 12 6 67 37 122 68 55 32 108 59 118 61 9 2 21 6 26 9 8 5 43 -3 91
-21 8 -3 21 -7 28 -9 6 -1 94 -29 195 -62 100 -33 229 -74 287 -92 58 -18 112
-34 120 -38 8 -3 17 -6 20 -7 3 0 59 -18 125 -39 66 -20 129 -40 139 -43 38
-11 141 -4 185 11 54 20 108 52 142 86 22 22 167 216 231 308 13 19 33 46 45
60 13 15 26 32 31 37 4 6 28 39 52 75 24 36 48 70 52 75 4 6 27 36 51 67 23
32 56 77 74 100 17 24 37 55 44 71 7 15 17 27 22 27 6 0 7 3 4 6 -3 4 -2 15 4
25 14 28 23 96 21 164 -1 60 -44 185 -63 185 -5 0 -9 5 -9 11 0 6 -19 36 -43
67 -24 32 -88 120 -143 197 -56 77 -123 170 -150 206 -27 37 -82 111 -121 166
-81 112 -117 153 -133 153 -5 0 -10 4 -10 8 0 10 -82 50 -120 58 -70 17 -187
10 -245 -15 -11 -4 -36 -13 -55 -19 -19 -5 -141 -44 -270 -86 -129 -41 -256
-81 -282 -88 -27 -7 -48 -16 -48 -21 0 -4 -4 -6 -8 -3 -5 3 -28 -2 -53 -11
-139 -48 -198 -62 -233 -52 -20 5 -43 17 -52 27 -10 9 -20 16 -23 15 -3 0 -32
14 -64 33 -32 19 -60 34 -62 34 -2 0 -49 27 -103 60 -55 33 -105 60 -111 60
-6 0 -11 5 -11 10 0 6 -4 10 -9 10 -5 0 -49 23 -98 51 -48 29 -106 62 -128 74
-22 13 -71 41 -110 64 -154 90 -211 113 -294 116 -54 2 -90 -2 -126 -15z m233
-286 c35 -20 92 -52 126 -73 33 -20 116 -68 184 -107 145 -82 140 -79 218
-126 34 -21 64 -38 68 -38 3 0 43 -22 87 -50 44 -27 84 -50 89 -50 5 0 21 -16
35 -35 l27 -34 -1 -515 c0 -407 -3 -522 -13 -543 -11 -24 -163 -123 -318 -206
-54 -30 -128 -72 -195 -112 -38 -23 -113 -67 -165 -96 -52 -30 -104 -59 -115
-66 -11 -7 -31 -17 -45 -23 -14 -6 -32 -17 -40 -25 -40 -35 -114 -18 -216 51
-16 11 -54 33 -84 49 -30 16 -95 53 -143 82 -48 29 -92 53 -97 53 -6 0 -10 5
-10 10 0 6 -4 10 -9 10 -7 0 -133 69 -216 119 -16 10 -48 28 -70 41 -116 65
-146 87 -160 116 -13 27 -15 108 -15 534 0 562 -2 547 71 591 22 13 46 29 53
34 6 6 32 21 56 34 61 32 365 207 528 303 73 43 136 78 140 78 5 0 14 6 20 13
20 19 94 35 121 25 14 -5 53 -25 89 -44z m2116 -211 c8 -4 46 -51 84 -103 39
-52 75 -100 80 -105 5 -6 17 -24 28 -40 10 -17 63 -89 116 -162 54 -73 98
-135 98 -138 0 -2 7 -13 15 -22 40 -50 134 -182 147 -208 8 -16 13 -39 12 -50
-2 -25 -23 -78 -32 -85 -4 -3 -32 -39 -62 -80 -29 -41 -57 -76 -62 -78 -4 -2
-8 -10 -8 -18 0 -8 -7 -17 -15 -20 -8 -4 -15 -11 -15 -16 0 -6 -35 -59 -78
-117 -43 -58 -127 -172 -185 -252 -113 -155 -137 -175 -199 -166 -34 5 -54 11
-488 152 -146 48 -274 88 -284 90 -11 3 -47 14 -80 25 -107 36 -101 0 -103
550 -2 303 1 486 8 507 5 17 22 39 37 49 26 18 330 123 365 126 9 1 17 6 17
11 0 4 4 6 9 2 5 -3 12 -1 16 5 4 6 9 8 13 6 4 -2 113 31 242 74 232 78 281
87 324 63z"/>
</g>
</svg>
